<svg width="25" height="25" viewBox="0 0 25 25" fill="none" xmlns="http://www.w3.org/2000/svg">
<g clip-path="url(#clip0)">
<path d="M1.5625 1.70106C-0.402079 3.74169 4.11272e-06 5.9094 4.11272e-06 12.4948C4.11272e-06 17.9636 -0.954163 23.4458 4.03959 24.7365C5.59896 25.1375 19.4156 25.1375 20.9729 24.7344C23.0521 24.1979 24.7438 22.5115 24.975 19.5708C25.0073 19.1604 25.0073 5.83648 24.974 5.41773C24.7281 2.28544 22.8 0.480232 20.2594 0.114607C19.6771 0.0302325 19.5604 0.00523248 16.5729 2.41473e-05C5.97605 0.00523248 3.65313 -0.466642 1.5625 1.70106Z" fill="url(#paint0_linear)"/>
<path d="M12.4979 3.26975C8.71563 3.26975 5.12397 2.93329 3.75209 6.45413C3.18543 7.90829 3.26772 9.79683 3.26772 12.501C3.26772 14.8739 3.19168 17.1041 3.75209 18.5468C5.12084 22.0698 8.74168 21.7323 12.4958 21.7323C16.1177 21.7323 19.8521 22.1093 21.2406 18.5468C21.8083 17.0781 21.725 15.2177 21.725 12.501C21.725 8.89475 21.924 6.56662 20.175 4.81871C18.4042 3.04787 16.0094 3.26975 12.4938 3.26975H12.4979ZM11.6708 4.93329C19.5604 4.92079 20.5646 4.04371 20.0104 16.2281C19.8135 20.5375 16.5323 20.0645 12.499 20.0645C5.1448 20.0645 4.93334 19.8541 4.93334 12.4968C4.93334 5.05413 5.51668 4.93746 11.6708 4.93121V4.93329ZM17.425 6.46558C16.8135 6.46558 16.3177 6.96142 16.3177 7.57288C16.3177 8.18433 16.8135 8.68017 17.425 8.68017C18.0365 8.68017 18.5323 8.18433 18.5323 7.57288C18.5323 6.96142 18.0365 6.46558 17.425 6.46558ZM12.4979 7.76038C9.88022 7.76038 7.75834 9.88329 7.75834 12.501C7.75834 15.1187 9.88022 17.2406 12.4979 17.2406C15.1156 17.2406 17.2365 15.1187 17.2365 12.501C17.2365 9.88329 15.1156 7.76038 12.4979 7.76038ZM12.4979 9.42392C16.5656 9.42392 16.5708 15.5781 12.4979 15.5781C8.43126 15.5781 8.42501 9.42392 12.4979 9.42392Z" fill="white"/>
</g>
<defs>
<linearGradient id="paint0_linear" x1="1.61044" y1="23.4032" x2="24.8453" y2="3.29373" gradientUnits="userSpaceOnUse">
<stop stop-color="#8E7F42"/>
<stop offset="0.5" stop-color="#FF543E"/>
<stop offset="1" stop-color="#C837AB"/>
</linearGradient>
<clipPath id="clip0">
<rect width="25" height="25" fill="white"/>
</clipPath>
</defs>
</svg>
