<svg width="25" height="25" viewBox="0 0 25 25" fill="none" xmlns="http://www.w3.org/2000/svg">
<g clip-path="url(#clip0)">
<path d="M12.5 24.9999C19.4034 24.9999 24.9998 19.4035 24.9998 12.5001C24.9998 5.59666 19.4034 0.000320435 12.5 0.000320435C5.59656 0.000320435 0.000213623 5.59666 0.000213623 12.5001C0.000213623 19.4035 5.59656 24.9999 12.5 24.9999Z" fill="#CB2027"/>
<path d="M13.5089 16.7386C12.5639 16.6655 12.1669 16.1969 11.4258 15.747C11.0185 17.8841 10.5207 19.9327 9.04628 21.0029C8.59061 17.7729 9.71429 15.3469 10.2361 12.7717C9.34664 11.2744 10.3431 8.26051 12.2192 9.00317C14.5283 9.91629 10.2201 14.5708 13.1123 15.1521C16.1317 15.7591 17.3644 9.91294 15.4918 8.01139C12.7863 5.26602 7.61666 7.949 8.25237 11.8791C8.40723 12.8399 9.40012 13.1316 8.64899 14.4574C6.91745 14.0739 6.40095 12.7082 6.46735 10.8876C6.57453 7.90734 9.14521 5.82062 11.7237 5.53185C14.9847 5.16687 18.0453 6.72929 18.4678 9.79663C18.9431 13.2586 16.9956 17.0078 13.5089 16.7386Z" fill="#F1F2F2"/>
</g>
<defs>
<clipPath id="clip0">
<rect width="25" height="25" fill="white"/>
</clipPath>
</defs>
</svg>
