<svg width="25" height="25" viewBox="0 0 25 25" fill="none" xmlns="http://www.w3.org/2000/svg">
<g clip-path="url(#clip0)">
<path d="M12.5 24.9999C19.4036 24.9999 25 19.4035 25 12.4999C25 5.59635 19.4036 -9.15527e-05 12.5 -9.15527e-05C5.59644 -9.15527e-05 0 5.59635 0 12.4999C0 19.4035 5.59644 24.9999 12.5 24.9999Z" fill="#4D76A1"/>
<path fill-rule="evenodd" clip-rule="evenodd" d="M12.0278 17.9822H13.0089C13.0089 17.9822 13.3053 17.9497 13.4566 17.7866C13.5959 17.6368 13.5914 17.3556 13.5914 17.3556C13.5914 17.3556 13.5722 16.0392 14.1832 15.8453C14.7855 15.6543 15.5589 17.1176 16.3787 17.6803C16.9986 18.1061 17.4697 18.0127 17.4697 18.0127L19.6616 17.9822C19.6616 17.9822 20.8082 17.9116 20.2646 17.01C20.22 16.9363 19.9479 16.3431 18.6348 15.1242C17.2604 13.8486 17.4445 14.0549 19.1001 11.8483C20.1084 10.5044 20.5114 9.68399 20.3855 9.3326C20.2654 8.99791 19.5239 9.08637 19.5239 9.08637L17.0559 9.10175C17.0559 9.10175 16.8729 9.07679 16.7372 9.1579C16.6047 9.23745 16.5193 9.42284 16.5193 9.42284C16.5193 9.42284 16.1287 10.4628 15.6077 11.3472C14.5088 13.2133 14.0694 13.3118 13.8898 13.1959C13.472 12.9259 13.5763 12.111 13.5763 11.5321C13.5763 9.72365 13.8506 8.96961 13.0421 8.77442C12.7739 8.70958 12.5764 8.6668 11.8904 8.65989C11.0098 8.65075 10.2644 8.66256 9.84239 8.86934C9.56163 9.00683 9.34504 9.31321 9.47695 9.33081C9.64006 9.35265 10.0095 9.43042 10.2054 9.69714C10.4583 10.0412 10.4494 10.8139 10.4494 10.8139C10.4494 10.8139 10.5946 12.9428 10.11 13.2073C9.77732 13.3887 9.32098 13.0183 8.34122 11.3253C7.83919 10.4581 7.46017 9.49949 7.46017 9.49949C7.46017 9.49949 7.38708 9.32034 7.25673 9.22453C7.09853 9.10843 6.87748 9.07145 6.87748 9.07145L4.53226 9.08682C4.53226 9.08682 4.1802 9.09662 4.05096 9.24971C3.93598 9.38585 4.04182 9.6675 4.04182 9.6675C4.04182 9.6675 5.87789 13.9631 7.95685 16.1278C9.86311 18.1125 12.0278 17.9822 12.0278 17.9822Z" fill="white"/>
</g>
<defs>
<clipPath id="clip0">
<rect width="25" height="25" fill="white"/>
</clipPath>
</defs>
</svg>
