<svg width="25" height="25" fill="none" xmlns="http://www.w3.org/2000/svg"><g clip-path="url(#clip0)"><path d="M12.5 25C19.403 25 25 19.404 25 12.5 25 5.597 19.403 0 12.5 0S0 5.597 0 12.5C0 19.404 5.597 25 12.5 25z" fill="#CB2027"/><path d="M13.509 16.739c-.945-.073-1.342-.542-2.083-.992-.408 2.137-.905 4.186-2.38 5.256-.455-3.23.668-5.656 1.19-8.231-.89-1.498.107-4.511 1.983-3.769 2.31.913-1.999 5.568.893 6.15 3.02.606 4.252-5.24 2.38-7.142-2.706-2.745-7.875-.062-7.24 3.868.155.96 1.148 1.253.397 2.578-1.732-.383-2.248-1.749-2.182-3.57.108-2.98 2.678-5.066 5.257-5.355 3.26-.365 6.321 1.197 6.744 4.265.475 3.462-1.472 7.21-4.96 6.942z" fill="#F1F2F2"/></g><defs><clipPath id="clip0"><path fill="#fff" d="M0 0h25v25H0z"/></clipPath></defs></svg>