<svg width="25" height="25" fill="none" xmlns="http://www.w3.org/2000/svg"><g clip-path="url(#clip0)"><path d="M12.5 25C19.404 25 25 19.404 25 12.5S19.404 0 12.5 0 0 5.596 0 12.5 5.596 25 12.5 25z" fill="#4D76A1"/><path fill-rule="evenodd" clip-rule="evenodd" d="M12.028 17.982h.98s.297-.032.449-.195c.139-.15.134-.431.134-.431s-.019-1.317.592-1.51c.603-.192 1.376 1.272 2.196 1.834.62.426 1.09.333 1.09.333l2.193-.03s1.146-.071.603-.973c-.045-.074-.317-.667-1.63-1.886-1.375-1.275-1.19-1.07.465-3.276 1.008-1.344 1.411-2.164 1.285-2.515-.12-.335-.861-.247-.861-.247l-2.468.016s-.183-.025-.319.056c-.132.08-.218.265-.218.265s-.39 1.04-.911 1.924c-1.1 1.866-1.539 1.965-1.718 1.849-.418-.27-.314-1.085-.314-1.664 0-1.808.275-2.562-.534-2.758-.268-.064-.466-.107-1.152-.114-.88-.01-1.626.003-2.048.21-.28.137-.497.443-.365.46.163.023.532.1.728.367.253.344.244 1.117.244 1.117s.146 2.129-.339 2.393c-.333.182-.789-.189-1.769-1.882-.502-.867-.88-1.826-.88-1.826s-.074-.179-.204-.274c-.158-.117-.38-.154-.38-.154l-2.345.016s-.352.01-.481.163c-.115.136-.01.418-.01.418s1.837 4.295 3.916 6.46c1.906 1.985 4.07 1.854 4.07 1.854z" fill="#fff"/></g><defs><clipPath id="clip0"><path fill="#fff" d="M0 0h25v25H0z"/></clipPath></defs></svg>